{
	"accessors" : 
	[
		{
			"bufferView" : 2,
			"byteOffset" : 0,
			"componentType" : 5126,
			"count" : 9914,
			"max" : 
			[
				1,
				1,
				1,
				1
			],
			"min" : 
			[
				0.006584956776350737,
				0.006584956776350737,
				0,
				1
			],
			"name" : "accessor_color_m0-PolyPaper21_-271204",
			"type" : "VEC4"
		},
		{
			"bufferView" : 2,
			"byteOffset" : 158624,
			"componentType" : 5126,
			"count" : 2640,
			"max" : 
			[
				1,
				1,
				1,
				1
			],
			"min" : 
			[
				0.1904628723859787,
				0.1219857111573219,
				0.06575388461351395,
				1
			],
			"name" : "accessor_color_m1-PolyPaper21_-271244",
			"type" : "VEC4"
		},
		{
			"bufferView" : 0,
			"byteOffset" : 0,
			"componentType" : 5123,
			"count" : 14448,
			"max" : 
			[
				9913
			],
			"min" : 
			[
				0
			],
			"name" : "accessor_indices_0_m0-PolyPaper21_-271204",
			"type" : "SCALAR"
		},
		{
			"bufferView" : 0,
			"byteOffset" : 28896,
			"componentType" : 5123,
			"count" : 3888,
			"max" : 
			[
				2639
			],
			"min" : 
			[
				0
			],
			"name" : "accessor_indices_0_m1-PolyPaper21_-271244",
			"type" : "SCALAR"
		},
		{
			"bufferView" : 1,
			"byteOffset" : 118968,
			"componentType" : 5126,
			"count" : 9914,
			"max" : 
			[
				1,
				1,
				1
			],
			"min" : 
			[
				-1,
				-1,
				-1
			],
			"name" : "accessor_normal_m0-PolyPaper21_-271204",
			"type" : "VEC3"
		},
		{
			"bufferView" : 1,
			"byteOffset" : 269616,
			"componentType" : 5126,
			"count" : 2640,
			"max" : 
			[
				1,
				1,
				1
			],
			"min" : 
			[
				-1,
				-1,
				-1
			],
			"name" : "accessor_normal_m1-PolyPaper21_-271244",
			"type" : "VEC3"
		},
		{
			"bufferView" : 1,
			"byteOffset" : 0,
			"componentType" : 5126,
			"count" : 9914,
			"max" : 
			[
				0.7200033,
				0.8656406,
				1.520011
			],
			"min" : 
			[
				-0.07003707000000001,
				0.6956877,
				0.04000999
			],
			"name" : "accessor_position_m0-PolyPaper21_-271204",
			"type" : "VEC3"
		},
		{
			"bufferView" : 1,
			"byteOffset" : 237936,
			"componentType" : 5126,
			"count" : 2640,
			"max" : 
			[
				0.8999863,
				0.8597528,
				1.730026
			],
			"min" : 
			[
				-0.1200136,
				0.6649935,
				-0.1699737
			],
			"name" : "accessor_position_m1-PolyPaper21_-271244",
			"type" : "VEC3"
		}
	],
	"asset" : 
	{
		"copyright" : "Unknown",
		"generator" : "glTF 1-to-2 Upgrader for Google Blocks",
		"version" : "2.0"
	},
	"bufferViews" : 
	[
		{
			"buffer" : 0,
			"byteLength" : 36672,
			"byteOffset" : 0,
			"name" : "ushortBufferView",
			"target" : 34963
		},
		{
			"buffer" : 0,
			"byteLength" : 301296,
			"byteOffset" : 36672,
			"byteStride" : 12,
			"name" : "vec3BufferView",
			"target" : 34962
		},
		{
			"buffer" : 0,
			"byteLength" : 200864,
			"byteOffset" : 337968,
			"byteStride" : 16,
			"name" : "vec4BufferView",
			"target" : 34962
		}
	],
	"buffers" : 
	[
		{
			"byteLength" : 538832,
			"name" : "model",
			"uri" : "model.bin"
		}
	],
	"materials" : 
	[
		{
			"alphaMode" : "OPAQUE",
			"doubleSided" : false,
			"name" : "BlocksPaper",
			"pbrMetallicRoughness" : 
			{
				"baseColorFactor" : 
				[
					1,
					1,
					1,
					1
				],
				"metallicFactor" : 0,
				"roughnessFactor" : 0.6
			}
		},
		{
			"alphaMode" : "BLEND",
			"doubleSided" : false,
			"name" : "BlocksGlass",
			"pbrMetallicRoughness" : 
			{
				"baseColorFactor" : 
				[
					0.2,
					0.2,
					1,
					0.3
				],
				"metallicFactor" : 1,
				"roughnessFactor" : 0.4
			}
		},
		{
			"alphaMode" : "OPAQUE",
			"doubleSided" : true,
			"name" : "BlocksGem",
			"pbrMetallicRoughness" : 
			{
				"baseColorFactor" : 
				[
					1,
					0.4,
					1,
					1
				],
				"metallicFactor" : 0,
				"roughnessFactor" : 0.1
			}
		}
	],
	"meshes" : 
	[
		{
			"name" : "mesh_m0-PolyPaper21_-271204",
			"primitives" : 
			[
				{
					"attributes" : 
					{
						"COLOR_0" : 0,
						"NORMAL" : 4,
						"POSITION" : 6
					},
					"indices" : 2,
					"material" : 0,
					"mode" : 4
				}
			]
		},
		{
			"name" : "mesh_m1-PolyPaper21_-271244",
			"primitives" : 
			[
				{
					"attributes" : 
					{
						"COLOR_0" : 1,
						"NORMAL" : 5,
						"POSITION" : 7
					},
					"indices" : 3,
					"material" : 0,
					"mode" : 4
				}
			]
		}
	],
	"nodes" : 
	[
		{
			"matrix" : 
			[
				1,
				0,
				0,
				0,
				0,
				1,
				0,
				0,
				0,
				0,
				1,
				0,
				0,
				0,
				0,
				1
			],
			"mesh" : 1,
			"name" : "node_MeshObject-1970277056-PolyPaper21"
		},
		{
			"matrix" : 
			[
				1,
				0,
				0,
				0,
				0,
				1,
				0,
				0,
				0,
				0,
				1,
				0,
				0,
				0,
				0,
				1
			],
			"mesh" : 0,
			"name" : "node_MeshObject249809984-PolyPaper21"
		}
	],
	"scene" : 0,
	"scenes" : 
	[
		{
			"extras" : {},
			"name" : "defaultScene",
			"nodes" : 
			[
				1,
				0
			]
		}
	]
}